<svg xmlns="http://www.w3.org/2000/svg" viewBox="0 0 1200 630" width="1200" height="630">
  <defs>
    <linearGradient id="bgGradient" x1="0%" y1="0%" x2="100%" y2="100%">
      <stop offset="0%" style="stop-color:#667eea;stop-opacity:1" />
      <stop offset="50%" style="stop-color:#764ba2;stop-opacity:1" />
      <stop offset="100%" style="stop-color:#f093fb;stop-opacity:1" />
    </linearGradient>
    
    <linearGradient id="logoGradient" x1="0%" y1="0%" x2="100%" y2="100%">
      <stop offset="0%" style="stop-color:#ffffff;stop-opacity:1" />
      <stop offset="100%" style="stop-color:#f0f0f0;stop-opacity:1" />
    </linearGradient>
  </defs>
  
  <!-- Background -->
  <rect width="1200" height="630" fill="url(#bgGradient)"/>
  
  <!-- Decorative elements -->
  <circle cx="100" cy="100" r="50" fill="rgba(255,255,255,0.1)"/>
  <circle cx="1100" cy="500" r="80" fill="rgba(255,255,255,0.1)"/>
  <circle cx="900" cy="150" r="30" fill="rgba(255,255,255,0.1)"/>
  
  <!-- Main logo circle -->
  <circle cx="300" cy="315" r="120" fill="url(#logoGradient)" opacity="0.95"/>
  
  <!-- Letter P in logo -->
  <path d="M250 265 L250 365 M250 265 L310 265 Q340 265 340 290 Q340 315 310 315 L250 315" 
        stroke="#667eea" stroke-width="8" fill="none" stroke-linecap="round" stroke-linejoin="round"/>
  
  <!-- AI dots in logo -->
  <circle cx="370" cy="285" r="6" fill="#667eea"/>
  <circle cx="370" cy="305" r="6" fill="#667eea"/>
  <circle cx="370" cy="325" r="6" fill="#667eea"/>
  
  <!-- Main title -->
  <text x="500" y="280" font-family="Arial, sans-serif" font-size="72" font-weight="bold" fill="white">
    PLACE IA
  </text>
  
  <!-- Subtitle -->
  <text x="500" y="340" font-family="Arial, sans-serif" font-size="36" fill="rgba(255,255,255,0.9)">
    Criador de Sites com IA
  </text>
  
  <!-- Description -->
  <text x="500" y="400" font-family="Arial, sans-serif" font-size="24" fill="rgba(255,255,255,0.8)">
    Crie sites profissionais em minutos com inteligência artificial
  </text>
  
  <!-- Website URL -->
  <text x="500" y="470" font-family="Arial, sans-serif" font-size="20" fill="rgba(255,255,255,0.7)">
    www.place-ia.com
  </text>
  
  <!-- Tech elements -->
  <rect x="980" y="50" width="4" height="60" fill="rgba(255,255,255,0.3)" rx="2"/>
  <rect x="990" y="30" width="4" height="80" fill="rgba(255,255,255,0.3)" rx="2"/>
  <rect x="1000" y="40" width="4" height="70" fill="rgba(255,255,255,0.3)" rx="2"/>
  <rect x="1010" y="20" width="4" height="90" fill="rgba(255,255,255,0.3)" rx="2"/>
  <rect x="1020" y="35" width="4" height="75" fill="rgba(255,255,255,0.3)" rx="2"/>
</svg>
